<?xml version="1.0" standalone="no"?><!DOCTYPE svg PUBLIC "-//W3C//DTD SVG 1.1//EN" "http://www.w3.org/Graphics/SVG/1.1/DTD/svg11.dtd"><svg t="1607839053227" class="icon" viewBox="0 0 1024 1024" version="1.1" xmlns="http://www.w3.org/2000/svg" p-id="9676" xmlns:xlink="http://www.w3.org/1999/xlink" width="256" height="256"><defs><style type="text/css">@font-face { font-family: element-icons; src: url("chrome-extension://moombeodfomdpjnpocobemoiaemednkg/fonts/element-icons.woff") format("woff"), url("chrome-extension://moombeodfomdpjnpocobemoiaemednkg/fonts/element-icons.ttf ") format("truetype"); }
</style></defs><path d="M881.664 268.288H169.8816a27.4432 27.4432 0 0 0-27.4432 27.4432v580.1984c0 28.2624 22.9376 51.2 51.2 51.2H881.664c28.2624 0 51.2-22.9376 51.2-51.2V319.488c0-28.2624-22.9376-51.2-51.2-51.2zM155.8016 528.1792a41.1648 41.1648 0 1 1 82.3296 0 41.1648 41.1648 0 0 1-82.3296 0z m675.7376 273.2544c0 28.2624-22.9376 51.2-51.2 51.2H244.8384c-28.2624 0-51.2-22.9376-51.2-51.2v-172.3392h262.2976v-111.3088c0-26.368 21.3504-47.7184 47.7184-47.7184h23.0912c26.368 0 47.7184 21.3504 47.7184 47.7184v111.3088h257.0752v172.3392z" fill="#F487A4" p-id="9677"></path><path d="M571.9552 629.0944v121.344c0 26.368-9.6256 47.7184-34.1504 47.7184h-41.984c-24.5248 0-34.1504-21.3504-34.1504-47.7184v-121.344H238.1824v172.3392c0 28.2624 21.2992 51.2 47.616 51.2h498.1248c26.3168 0 47.616-22.9376 47.616-51.2v-172.3392h-259.584z" fill="#84DDFD" p-id="9678"></path><path d="M606.1056 123.6992H451.1744c-41.1136 0-74.4448 30.1568-74.4448 67.3792v38.0416h26.624v-27.0848c0-20.5312 18.432-52.5824 41.1136-52.5824h142.6944c22.7328 0 41.1136 32 41.1136 52.5824v27.0848h52.224v-38.0416c0.0512-37.2224-33.28-67.3792-74.3936-67.3792z" fill="#BC9BE0" p-id="9679"></path><path d="M209.4592 537.2928m-28.7232 0a28.7232 28.7232 0 1 0 57.4464 0 28.7232 28.7232 0 1 0-57.4464 0Z" fill="#84DDFD" p-id="9680"></path><path d="M197.0176 584.704c-31.1808 0-56.5248-25.344-56.5248-56.5248s25.344-56.5248 56.5248-56.5248 56.5248 25.344 56.5248 56.5248-25.3952 56.5248-56.5248 56.5248z m0-82.3296c-14.2336 0-25.8048 11.5712-25.8048 25.8048s11.5712 25.8048 25.8048 25.8048 25.8048-11.5712 25.8048-25.8048-11.5712-25.8048-25.8048-25.8048z" fill="#333333" p-id="9681"></path><path d="M534.784 798.1568h-4.6592a39.6288 39.6288 0 0 1-39.6288-39.6288v-240.7424a39.6288 39.6288 0 0 1 39.6288-39.6288h4.6592a39.6288 39.6288 0 0 1 39.6288 39.6288v240.7424c0.0512 21.9136-17.7152 39.6288-39.6288 39.6288z" fill="#FDCFA5" p-id="9682"></path><path d="M881.664 213.7088h-185.7536V183.296c0-53.1456-43.264-96.4096-96.4096-96.4096H430.8992c-53.1456 0-96.4096 43.264-96.4096 96.4096v30.4128h-190.976c-36.7104 0-66.56 29.8496-66.56 66.56v595.6608c0 36.7104 29.8496 66.56 66.56 66.56H881.664c36.7104 0 66.56-29.8496 66.56-66.56V280.2688c0-36.6592-29.8496-66.56-66.56-66.56zM365.2096 183.3472c0-36.1984 29.4912-65.6896 65.6896-65.6896h168.6528c36.1984 0 65.6896 29.4912 65.6896 65.6896v30.4128h-26.1632v-17.2032c0-33.1776-26.9824-60.1088-60.16-60.1088H451.4816c-33.1776 0-60.1088 26.9824-60.1088 60.1088v17.2032h-26.1632v-30.4128z m243.1488 30.3616H422.0416v-17.2032c0-16.2304 13.2096-29.3888 29.3888-29.3888h127.4368c16.2304 0 29.44 13.2096 29.44 29.3888v17.2032z m-500.6848 66.56c0-19.7632 16.0768-35.84 35.84-35.84h738.2016c19.7632 0 35.84 16.0768 35.84 35.84v297.6256c0 19.7632-16.0768 35.84-35.84 35.84H589.824v-95.9488c0-34.7648-28.3136-63.0784-63.0784-63.0784h-23.0912c-34.7648 0-63.0784 28.3136-63.0784 63.0784v95.9488H143.5136c-19.7632 0-35.84-16.0768-35.84-35.84V280.2688z m101.3248 364.1856h231.5776v105.984c0 30.4128 21.6576 55.9104 50.3808 61.7984 4.096 0.8192 8.3456 1.28 12.6976 1.28h23.0912c4.352 0 8.6016-0.4608 12.6976-1.28 28.7232-5.888 50.3808-31.3344 50.3808-61.7984v-105.984h226.3552v156.9792c0 19.7632-16.0768 35.84-35.84 35.84H244.8384c-19.7632 0-35.84-16.0768-35.84-35.84v-156.9792z m262.2976-30.72v-95.9488c0-17.8176 14.4896-32.3584 32.3584-32.3584h23.0912c17.8176 0 32.3584 14.4896 32.3584 32.3584V650.3424H471.296v-36.608z m87.808 136.704c0 17.8176-14.4896 32.3584-32.3584 32.3584h-23.0912c-17.8176 0-32.3584-14.4896-32.3584-32.3584v-10.24h87.808v10.24z m0-40.96H471.296v-28.416h87.808v28.416z m322.56 202.2912H143.5136c-19.7632 0-35.84-16.0768-35.84-35.84V633.856a65.9968 65.9968 0 0 0 35.84 10.5472h34.7648v156.9792c0 36.7104 29.8496 66.56 66.56 66.56h535.5008c36.7104 0 66.56-29.8496 66.56-66.56v-156.9792h34.7648c13.2096 0 25.4976-3.8912 35.84-10.5472v242.0736c0 19.7632-16.0768 35.84-35.84 35.84z" fill="#333333" p-id="9683"></path></svg>